<svg id="Calque_1" data-name="Calque 1" xmlns="http://www.w3.org/2000/svg" viewBox="0 0 491 491"><defs><style>.cls-1{fill:#fff;}</style></defs><title>eco</title><path class="cls-1" d="M401.5,9.5h-291a100,100,0,0,0-100,100v291a100,100,0,0,0,100,100h291a100,100,0,0,0,100-100v-291A100,100,0,0,0,401.5,9.5ZM373.72,396.74a190.17,190.17,0,0,1-43.88,13.11c-31.34,5.39-61.89,2.64-91.45-9.22-30.46-12.22-52.35-33.75-67.27-62.73A154,154,0,0,1,159,305.84c-.72-2.79-1.85-3.86-4.9-3.77-8.62.25-17.26.1-25.89.08-8.06,0-11.65-3.64-11.66-11.78,0-5.89,0-11.78,0-17.67.05-7.34,3.78-11.1,11.08-11.14,8.11,0,16.22,0,24.54,0V244.29H149c-7.21,0-14.42,0-21.63,0-6.92,0-10.75-3.83-10.83-10.76q-.11-9.59,0-19.19c.09-6.75,3.87-10.55,10.67-10.62q14.77-.14,29.55,0c2.09,0,3-.61,3.62-2.61,5.19-16.34,12.3-31.75,22.61-45.56,17.11-22.91,39.16-38.87,66.53-47.37A164.37,164.37,0,0,1,289.24,101a20.69,20.69,0,0,0,2.65-.49h18.28c6.22.81,12.47,1.47,18.66,2.47a171.31,171.31,0,0,1,44.79,13.16c9,4.15,11.29,10.21,7.52,19.38q-4.92,12-10.17,23.76c-3.65,8.24-8,10.32-16.76,8.28-12.63-2.94-25.17-6.46-37.92-8.71-21.4-3.78-42.47-2.52-62.55,6.78-14.49,6.71-24.14,18.16-31.25,32.07-.91,1.78-1.71,3.62-2.81,6h62.46c8.55,0,12.06,3.5,12.07,12,0,5.89,0,11.78,0,17.67-.06,7.11-3.86,10.91-11,10.92q-34.42,0-68.85,0h-3.77v17.25h71.34c8.79,0,12.26,3.42,12.27,12.11,0,5.69,0,11.37,0,17.06,0,7.72-3.71,11.43-11.4,11.43q-31.07,0-62.15,0h-3.59c4.12,11.91,9.61,22.54,18,31.55,12.54,13.54,28.72,19.24,46.47,21.54,20.25,2.63,39.81-1.17,59.22-6.37,4.8-1.28,9.61-2.53,14.45-3.62,7.53-1.7,11.94.24,15.15,7.21,4.07,8.83,8,17.77,11.53,26.82C385,387.36,382.13,393.08,373.72,396.74Z" transform="translate(-10.5 -9.5)"/></svg>