<svg id="Calque_1" data-name="Calque 1" xmlns="http://www.w3.org/2000/svg" viewBox="0 0 500 500"><defs><style>.cls-1{fill:#fff;}</style></defs><title>patronnat</title><path class="cls-1" d="M406,6H106A100,100,0,0,0,6,106V406A100,100,0,0,0,106,506H406A100,100,0,0,0,506,406V106A100,100,0,0,0,406,6ZM257.34,100.91a34,34,0,0,1,33.54,33.66c0,18.42-15.37,33.75-33.87,33.7s-34-15.54-33.72-33.84A34,34,0,0,1,257.34,100.91Zm-97.88,16c16-.53,32.12-.1,48.48-.1-6.78,24.92-.94,45.47,19.88,60.63a50.17,50.17,0,0,0,57.41.69c21.84-14.94,27.91-35.92,21.07-61.18a12.79,12.79,0,0,1,1.87-.27c15.33,0,30.67-.34,46,.21a48.54,48.54,0,0,1,46.47,53.54c-4.17,39.7-8.61,79.38-12.92,119.07-1.37,12.61-2.68,25.22-4,37.83-.19,1.72-.5,3.43-.78,5.28H352v-4.36q0-34.11,0-68.22c0-13.82-4.14-26.15-13.54-36.52a52.71,52.71,0,0,0-22.93-14.57c-4-1.35-8.14-2.56-12.22-3.77-7-2.07-11-.17-13.73,6.6q-11,27.61-21.91,55.26l-10.52,26.5c-1-2.3-1.66-3.8-2.26-5.32q-15-37.77-30-75.53c-3.16-8-6.9-9.88-14.93-7.19-7.23,2.42-14.81,4.38-21.4,8.05-17.91,10-26.22,26-26.38,46.31-.17,22.61,0,45.23,0,67.84v4.8h-31c-.73-6.31-1.5-12.74-2.21-19.18q-5.22-47.74-10.41-95.47c-1.75-16.1-3.58-32.2-5.11-48.32C110.91,142.49,132.39,117.75,159.46,116.86ZM333.84,327.8v4.67H265.75L304.17,225a33.07,33.07,0,0,1,29.12,28.26,71.85,71.85,0,0,1,.52,9Q333.88,295,333.84,327.8Zm-85.42,4.67H180.57c-.09-1.2-.23-2.18-.23-3.15,0-23.23-.09-46.46,0-69.68.08-18.31,10.95-31.17,29.55-34.9Zm201,70c-.3,6.32-6.26,10.35-12.72,10.71-1.63.09-3.26.07-4.9.07H80.27c-8.63,0-15-3.48-15.45-10.59a401.16,401.16,0,0,1,0-43.2c.31-6.1,6.35-10,12.59-10.42,1.13-.07,2.26,0,3.39,0H433.52c8.92,0,15.4,3.44,15.84,10.63A398.37,398.37,0,0,1,449.45,402.53Z" transform="translate(-6 -6)"/><path class="cls-1" d="M251.22,223.58c-1,3.72-1.09,7.68-1.46,11.55-.33,3.47-1.31,7.16-.54,10.4,1.26,5.32,3.64,10.38,5.71,15.48a3.65,3.65,0,0,0,2.32,1.94c.54.1,1.66-1,2-1.84,3.63-9.14,7.71-18,4.95-28.53-2.43-9.27-2.81-18.51,4.73-26.6,3.29-3.53.17-8.68-4.82-9.15-2.24-.21-4.51,0-6.77,0v-.06c-.75,0-1.51,0-2.26,0-3.67.13-7.81-.91-10.11,3.22s.61,7.22,2.81,10.14C250.84,214.18,252.62,218.27,251.22,223.58Z" transform="translate(-6 -6)"/></svg>