<svg id="Calque_1" data-name="Calque 1" xmlns="http://www.w3.org/2000/svg" viewBox="0 0 500 500"><defs><style>.cls-1{fill:#fff;}</style></defs><title>peuple-jauge</title><path class="cls-1" d="M406,6H106A100,100,0,0,0,6,106V406A100,100,0,0,0,106,506H406A100,100,0,0,0,506,406V106A100,100,0,0,0,406,6Zm-66.79,94.35a11.22,11.22,0,0,0,1.66-.59h8.55c3.64,1.2,7.47,2,10.89,3.67A33.28,33.28,0,0,1,378,140.75a33.73,33.73,0,0,1-32.45,26c-16.71,0-31.85-13.31-33.38-29.33C310.4,119.17,321.72,103.66,339.21,100.35Zm-89.16,0a11.58,11.58,0,0,0,1.68-.57h8.55c2.7.8,5.47,1.42,8.09,2.44,14.9,5.78,23.41,21.39,20.53,37.45-2.76,15.36-16.82,27-32.74,27.14A33.49,33.49,0,0,1,250,100.34Zm-88.87-.05a8.44,8.44,0,0,0,1.41-.52h8.55c5.71,1.47,11.22,3.29,16,7a33.67,33.67,0,0,1,10.62,39C192.39,159,177.89,168,164,166.62c-15.59-1.59-27.64-12.5-30.25-27.38C130.53,120.66,142.46,103.69,161.17,100.29ZM188.81,412.2H122.05V301.65c-4.49-1.64-8.7-2.8-12.54-4.69-5.25-2.58-8.07-7.24-9.23-12.93a13.13,13.13,0,0,0-.59-1.7V196.24a2.77,2.77,0,0,0,.43-.8c1.66-10.94,10.59-16.94,20.36-17.26,16.15-.54,32.33-.15,48.86-.15-3.82,8.37-2.53,17.1-2.56,25.68q-.16,47.46,0,94.92a36,36,0,0,0,1.13,9.93c2.53,8.61,9.21,12.45,17.5,14.1,1.09.22,2.19.33,3.4.51ZM323,278.36c-.13,13.56-6.85,20.08-22.38,22.56V412.23H211.5V301.81c-4.87-1.9-9.34-3.23-13.4-5.33-5.24-2.71-7.72-7.63-8.64-13.31a40.31,40.31,0,0,1-.49-6.38q0-37.55,0-75.1a35.94,35.94,0,0,1,.75-7.57c2.11-9.64,10.79-16,22-16.16,8.55-.12,17.09,0,25.64,0,20.56,0,41.11,0,61.66,0a34.6,34.6,0,0,1,9,1.06c9,2.49,14.79,10.81,14.87,21.79C323.15,226.67,323.2,252.51,323,278.36Zm68.26,22.29c-.3,0-.59.14-1.23.3V412.14H323.24V323.49a95.56,95.56,0,0,0,9.29-2.66c7.87-3.1,12.13-9.12,12.54-17.49.36-7.21.17-14.44.18-21.67q0-41.06,0-82.12c0-7.19.71-14.47-2.69-21.63h8.57q18.62,0,37.24,0c15.38,0,23.91,8.61,23.92,24.11q0,37.4,0,74.79C412.29,291.21,405.52,298.83,391.21,300.64Z" transform="translate(-6 -6)"/></svg>