<?xml version="1.0" standalone="no"?>
<!DOCTYPE svg PUBLIC "-//W3C//DTD SVG 20010904//EN"
 "http://www.w3.org/TR/2001/REC-SVG-20010904/DTD/svg10.dtd">
<svg version="1.0" xmlns="http://www.w3.org/2000/svg"
 width="16.000000pt" height="16.000000pt" viewBox="0 0 16.000000 16.000000"
 preserveAspectRatio="xMidYMid meet">
<metadata>
Created by potrace 1.11, written by Peter Selinger 2001-2013
</metadata>
<g transform="translate(0.000000,16.000000) scale(0.000634,-0.000634)"
fill="#000000" stroke="none">
<path d="M3830 21222 c-7 -3 -10 -2949 -10 -8798 l0 -8794 23 -1 c114 -4 3039
-1 3043 4 4 3 6 3111 6 6906 0 3797 4 6901 8 6901 5 0 13 -6 17 -14 4 -8 55
-65 113 -127 58 -62 125 -136 150 -163 25 -27 54 -59 65 -71 20 -20 189 -204
236 -256 67 -74 207 -227 233 -254 15 -16 63 -68 105 -114 90 -100 118 -130
180 -196 25 -28 93 -102 151 -165 58 -63 125 -137 150 -164 25 -27 50 -54 55
-60 6 -6 40 -43 75 -81 78 -85 258 -280 320 -349 25 -27 54 -59 65 -70 11 -12
61 -66 110 -120 50 -54 106 -116 125 -136 19 -21 76 -82 125 -136 50 -54 101
-110 115 -125 14 -15 57 -62 96 -105 39 -44 91 -99 114 -124 23 -25 74 -81
114 -124 39 -43 78 -86 87 -95 9 -9 69 -74 134 -146 66 -71 135 -147 155 -169
19 -21 46 -50 59 -65 35 -38 211 -229 244 -264 72 -79 190 -208 207 -227 10
-12 64 -70 120 -130 56 -60 110 -119 121 -131 15 -18 168 -184 219 -239 8 -9
60 -65 115 -125 55 -61 125 -137 156 -170 30 -33 80 -87 110 -120 30 -33 61
-67 69 -75 8 -8 58 -62 110 -120 52 -58 102 -112 110 -120 8 -8 62 -67 120
-130 158 -172 182 -199 220 -240 59 -63 214 -232 233 -253 9 -11 59 -66 111
-121 51 -56 146 -159 211 -231 66 -71 124 -135 130 -141 5 -6 51 -55 100 -109
50 -54 108 -118 130 -141 102 -110 166 -185 243 -288 46 -61 88 -118 95 -126
26 -33 267 -407 267 -415 0 -2 14 -28 31 -57 60 -100 197 -383 261 -538 151
-362 269 -776 322 -1127 32 -210 34 -225 41 -318 4 -44 9 -91 11 -105 3 -20
13 -195 17 -311 1 -17 -26 -61 -85 -140 -496 -659 -1079 -1128 -1737 -1398
-190 -78 -498 -173 -641 -197 -14 -2 -45 -9 -70 -14 -64 -14 -156 -28 -225
-36 -33 -3 -69 -8 -79 -10 -130 -24 -789 -23 -917 1 -10 2 -49 7 -86 11 -88 9
-91 9 -98 16 -3 3 -5 261 -4 574 4 1941 2 5439 -4 5544 -9 186 -44 313 -127
468 -86 158 -171 249 -340 364 -69 46 -203 137 -297 201 -222 150 -455 308
-713 482 -249 168 -474 320 -722 488 -103 70 -191 127 -196 127 -5 0 -9 -832
-10 -2082 0 -1146 -1 -3504 -3 -5240 -1 -1737 0 -3160 3 -3163 9 -9 114 -26
208 -33 52 -4 277 -7 500 -7 425 0 714 8 1160 30 63 3 160 8 215 10 55 3 145
8 200 11 55 3 134 7 175 9 41 2 111 6 155 9 44 3 125 8 180 11 182 11 352 23
405 30 19 3 62 7 95 10 66 5 146 14 185 20 14 2 49 7 79 10 30 4 61 8 70 10 9
1 41 6 71 10 30 4 64 9 75 11 10 2 35 6 55 9 20 3 47 7 60 10 13 3 42 7 65 10
34 5 423 87 478 101 9 2 26 6 38 9 225 49 801 227 974 300 17 7 48 19 70 28
521 201 1087 507 1490 808 315 235 652 588 878 919 73 107 185 287 215 346 45
88 116 230 117 234 0 3 11 28 24 55 42 93 98 239 136 355 37 115 108 385 119
450 3 19 8 45 10 56 2 12 7 39 10 60 3 22 8 50 11 64 5 31 11 77 20 155 4 33
9 74 11 90 18 137 23 591 10 770 -12 153 -15 186 -21 232 -3 24 -8 64 -11 90
-3 27 -7 59 -10 73 -2 14 -7 45 -9 70 -5 42 -8 57 -20 120 -3 14 -8 41 -11 60
-19 117 -95 447 -129 560 -8 25 -26 86 -40 135 -145 492 -362 995 -636 1478
-22 38 -39 73 -39 78 0 6 8 22 19 37 10 15 39 59 63 97 25 39 65 102 89 140
25 39 74 115 109 170 35 55 78 123 95 150 50 78 494 773 665 1042 85 134 219
343 297 465 79 123 177 277 219 343 71 113 160 252 306 478 35 54 68 106 73
116 6 9 35 55 64 102 135 209 161 249 211 329 29 47 72 114 95 150 45 69 181
282 250 390 23 36 66 103 95 150 29 47 58 90 64 97 8 9 11 -1694 11 -6059 l0
-6071 1600 0 1600 0 2 8796 c1 4838 -1 8797 -5 8798 -9 0 -1908 0 -2628 0
l-570 -1 -29 -42 c-15 -24 -71 -110 -125 -193 -53 -82 -199 -307 -325 -500
-125 -192 -248 -381 -273 -420 -25 -38 -91 -140 -147 -225 -55 -85 -130 -200
-165 -255 -64 -98 -179 -273 -323 -495 -41 -63 -157 -241 -257 -395 -100 -154
-214 -329 -254 -390 -192 -294 -236 -363 -301 -462 -62 -97 -203 -312 -430
-660 -44 -67 -84 -130 -90 -140 -5 -10 -44 -70 -86 -133 -42 -63 -107 -162
-144 -220 -38 -58 -111 -170 -163 -250 -220 -338 -270 -414 -377 -580 -63 -96
-118 -180 -124 -187 -6 -7 -11 -14 -11 -17 0 -3 -18 -31 -39 -63 -22 -32 -78
-119 -127 -193 -225 -347 -291 -449 -412 -635 -47 -71 -102 -156 -124 -188
-21 -32 -38 -61 -38 -63 0 -3 -5 -10 -10 -17 -10 -11 -93 -137 -268 -407 -41
-63 -76 -117 -79 -120 -2 -2 -27 20 -55 50 -28 30 -96 105 -153 165 -56 61
-115 124 -131 141 -34 37 -172 189 -194 214 -8 10 -53 60 -100 111 -107 118
-176 193 -220 243 -19 22 -46 51 -59 65 -12 14 -55 62 -95 105 -39 44 -80 89
-91 100 -11 12 -76 84 -145 161 -68 77 -146 163 -172 190 -25 28 -56 61 -68
75 -18 21 -144 161 -175 194 -5 6 -48 54 -95 106 -47 52 -106 118 -132 145
-25 28 -56 61 -67 74 -23 26 -142 159 -181 201 -14 15 -59 65 -100 111 -41 46
-100 111 -130 144 -59 65 -212 235 -245 271 -11 12 -51 57 -90 100 -38 43 -77
85 -85 94 -8 8 -55 60 -104 115 -49 55 -92 102 -96 105 -3 3 -62 68 -130 145
-69 76 -132 146 -140 155 -8 9 -53 58 -100 110 -47 52 -108 119 -135 150 -28
30 -66 72 -85 94 -19 21 -46 51 -60 66 -14 15 -59 65 -100 111 -41 46 -82 90
-90 99 -8 9 -51 56 -95 106 -44 49 -84 94 -90 100 -23 25 -184 202 -235 259
-30 33 -93 103 -140 154 -47 52 -93 103 -102 113 -20 24 -136 152 -169 189
-13 14 -62 68 -109 119 -47 52 -98 109 -115 126 -16 18 -41 45 -54 61 -30 34
-289 322 -310 344 -9 9 -50 54 -91 99 -41 46 -84 94 -95 106 -11 12 -51 57
-90 99 -38 43 -74 83 -80 89 -5 6 -48 54 -95 106 -47 52 -87 97 -90 100 -11
11 -119 130 -190 209 -41 46 -84 93 -95 105 -11 11 -76 84 -145 161 -68 77
-134 149 -145 160 -11 12 -54 59 -95 105 -41 47 -85 95 -97 107 l-22 23 -1526
2 c-839 2 -1530 2 -1535 0z"/>
</g>
</svg>
